<svg width="37" height="39" viewBox="0 0 37 39" fill="none" xmlns="http://www.w3.org/2000/svg">
    <path d="M35.5343 4.31495L35.019 4.2757C35.033 4.2257 35.0869 4.06518 35.0977 4.03504C35.1804 3.80572 35.2832 3.52028 35.2832 3.1703C35.2832 2.08647 34.5184 1.1783 33.5011 0.959358C33.0963 0.344536 32.4212 0 31.5927 0C30.3485 0 29.3363 1.01443 29.3363 2.26124C29.3363 2.44727 29.3588 2.62943 29.402 2.80509C29.1627 2.86725 28.9272 2.94068 28.6965 3.0274C27.9632 3.3035 27.2755 3.70356 26.6505 4.21547C25.8365 4.88253 25.104 5.74227 24.4753 6.7705C23.9839 7.57353 23.5441 8.49878 23.1677 9.52038C22.7324 10.7098 22.4979 11.7359 22.3971 12.2426L16.4233 14.8626C16.4748 13.8985 16.501 12.9672 16.501 12.0941C16.5002 8.7622 16.1269 6.1071 15.3921 4.20122C14.7671 2.57443 13.998 1.86924 13.5947 1.59313C13.2833 1.37822 12.9391 1.21188 12.571 1.09913C12.2103 0.989431 11.8362 0.932792 11.4583 0.932046C10.964 0.932792 10.5003 1.02906 10.0799 1.21778C9.61766 1.42523 9.22339 1.74693 8.94038 2.14833C8.83883 2.29459 8.54313 2.8789 8.46995 3.03926C8.16006 2.9415 7.83747 2.89225 7.51264 2.89225H7.5104C6.73306 2.89225 5.98335 3.17582 5.40016 3.68923C4.82294 4.19674 4.44734 4.8944 4.3413 5.65257C4.00453 5.74287 3.68643 5.88756 3.39595 6.08166C3.10921 6.27336 2.85607 6.50917 2.644 6.78237C2.43043 7.05773 2.26391 7.36443 2.14892 7.69277C2.03094 8.03231 1.9712 8.38826 1.97045 8.75168C1.97045 9.24046 2.07798 9.70984 2.28856 10.1471C1.96373 10.2449 1.65757 10.3934 1.3783 10.5888C1.10126 10.7822 0.857831 11.0172 0.654722 11.2866C0.232076 11.8471 0.00805804 12.5164 0.00805804 13.2209C0.00805804 14.1738 0.426971 15.0708 1.15652 15.6827C0.426971 16.2945 0.00805804 17.1915 0.00805804 18.1445C0.00731132 18.9975 0.305255 19.6168 0.554661 19.9862C0.871272 20.4504 1.28122 20.7981 1.74046 20.9914C3.16148 21.5779 5.11566 22.7062 6.96828 24.0084C7.82328 24.6083 8.59838 25.2053 9.20995 25.7344C9.51461 25.9971 10.2628 26.7657 10.345 26.8843C10.7952 28.1635 11.4875 29.2827 12.4022 30.2125C12.9817 30.8006 13.6515 31.3154 14.3937 31.7431C14.9829 32.0819 15.6213 32.3684 16.2911 32.5937C16.7213 32.7379 17.1055 32.8375 17.4229 32.9067L16.5676 35.7718L14.929 36.2958C14.5362 36.4214 14.3196 36.8414 14.4453 37.2339C14.5468 37.5509 14.8403 37.7529 15.1563 37.7529C15.2317 37.7529 15.3085 37.7414 15.3841 37.7172L17.2599 37.1174L20.687 37.3718C21.0979 37.4021 21.4565 37.0939 21.487 36.6829C21.5175 36.272 21.2089 35.914 20.7976 35.8835L18.1513 35.6871L18.9858 32.8917L22.2387 31.781C22.3089 32.0095 22.4008 32.2236 22.512 32.4169C22.9384 33.1632 23.597 33.4952 23.9517 33.6266C24.2766 33.7489 24.6263 33.8204 24.9929 33.8416L26.3559 36.3794L25.1969 36.7499C24.8041 36.8755 24.5875 37.2956 24.7132 37.688C24.8146 38.0049 25.1082 38.2071 25.4242 38.2071C25.4995 38.2071 25.5763 38.1956 25.6519 38.1713L27.5276 37.5717L30.9548 37.8261C31.365 37.8555 31.7242 37.5482 31.7548 37.1371C31.7853 36.7262 31.4767 36.3682 31.0654 36.3377L27.9023 36.1029L26.2958 33.1119L30.5974 25.9097C31.2844 25.553 31.9012 25.1052 32.4314 24.5776C32.9317 24.0798 33.3581 23.5075 33.6993 22.8762C33.8957 22.5142 33.7613 22.0605 33.3991 21.8643C33.2901 21.8053 33.1677 21.774 33.0437 21.774C32.7696 21.774 32.518 21.9232 32.3873 22.1642C31.7787 23.2776 30.9133 24.0969 29.7409 24.6693C29.6095 24.7327 29.5012 24.8326 29.4266 24.9581L25.0127 32.348C24.8335 32.3315 24.4944 32.2786 24.2249 32.1055C24.0457 31.9936 23.9135 31.8562 23.8067 31.6726C23.6678 31.4301 23.5894 31.1279 23.5663 30.7495C23.5642 30.7136 23.2172 28.2776 23.2172 28.2776C23.1596 27.8695 22.7818 27.5853 22.3734 27.6432C21.965 27.7008 21.6808 28.0784 21.7385 28.4865L21.9932 30.2872L18.2989 31.5487C17.8926 31.4927 16.8226 31.2994 15.6338 30.713C14.7885 30.2973 14.0485 29.7652 13.4347 29.1324C12.6738 28.3467 12.0988 27.3974 11.7269 26.3109C11.7098 26.2602 11.3297 25.7057 11.0541 25.4177C10.226 24.5587 8.83935 23.4588 7.14951 22.3216C5.38425 21.1366 3.66604 20.1747 2.31223 19.6128C2.16811 19.556 1.95156 19.3911 1.79325 19.1516C1.6006 18.8636 1.50203 18.5248 1.50128 18.1442C1.50278 17.2134 2.24696 16.4523 3.16812 16.4297C3.48727 16.4753 5.58161 16.8304 7.1186 18.4585C7.26548 18.6141 7.46351 18.6927 7.66191 18.6927C7.84568 18.6927 8.0299 18.6253 8.17417 18.4893C8.47413 18.2065 8.48794 17.7342 8.20493 17.4343C6.17324 15.2822 3.40685 14.9535 3.29006 14.9405C3.2876 14.9403 1.50128 14.6816 1.50128 13.2205C1.50128 12.2758 2.26817 11.5064 3.20755 11.5049C3.35585 11.5049 3.50273 11.525 3.64625 11.5636C4.02312 11.7458 6.31542 12.9014 7.66572 14.6682C7.81268 14.8604 8.0349 14.9615 8.25974 14.9615C8.41782 14.9615 8.5771 14.9115 8.71241 14.8083C9.04015 14.5581 9.10287 14.0898 8.85257 13.7623C7.26637 11.6869 4.67882 10.4018 4.26723 10.2059C3.76364 9.88872 3.4636 9.34695 3.4636 8.75138C3.46293 7.89336 4.08316 7.18317 4.90635 7.05661C5.64441 7.47965 8.42492 9.218 9.4445 11.9156C9.5574 12.2144 9.84146 12.3984 10.1431 12.3984C10.2308 12.3984 10.32 12.3829 10.4069 12.3501C10.7927 12.2045 10.9872 11.7739 10.8415 11.3883C9.70936 8.39289 6.89092 6.49402 5.82109 5.86047C5.9387 5.02865 6.65145 4.38591 7.50996 4.38442C7.84598 4.38442 8.15811 4.4777 8.43888 4.66127C8.44165 4.66307 8.44463 4.66441 8.44739 4.6662C8.44896 4.66717 8.45031 4.66836 8.45188 4.66933C8.47502 4.68381 10.7792 6.16053 11.6912 9.80693C11.7761 10.146 12.0805 10.3724 12.4151 10.3724C12.4751 10.3724 12.536 10.3651 12.5968 10.3499C12.9969 10.25 13.2402 9.84476 13.1402 9.44501C12.3516 6.29239 10.6346 4.52143 9.76611 3.79564C9.80823 3.70184 10.149 3.02329 10.1593 3.00986C10.293 2.82173 10.4677 2.68077 10.6932 2.57779C10.9158 2.47705 11.1794 2.42407 11.4564 2.42407H11.4646C11.9119 2.42407 12.3898 2.57175 12.7423 2.81882C13.203 3.14866 13.6376 3.81273 13.9983 4.73881C14.459 5.9283 15.0078 8.16917 15.0071 12.0936C15.0071 13.1622 14.9667 14.3161 14.8869 15.5289L10.8067 17.2458C10.5856 17.3388 10.4226 17.5324 10.3688 17.766C10.3411 17.8861 9.71227 20.7353 11.6096 23.1179C13.2074 25.1243 16.0495 26.1417 20.0571 26.1417C23.4157 26.1417 26.8865 24.3872 28.6937 21.7759C29.926 19.9951 30.2362 18.038 29.5671 16.2651C29.4216 15.8795 28.9906 15.6849 28.6049 15.8302C28.219 15.9757 28.0242 16.4062 28.1697 16.7918C28.6607 18.0926 28.4106 19.5612 27.4654 20.927C25.9246 23.1534 22.9475 24.6492 20.0571 24.6492C16.5379 24.6492 14.0927 23.8261 12.7895 22.2027C11.6808 20.8216 11.6993 19.1721 11.7723 18.4588L23.3598 13.4488C23.5958 13.3458 23.7593 13.1316 23.7981 12.8772C23.7981 12.8772 23.7989 12.8734 23.8011 12.8578C23.8048 12.834 24.1797 10.4444 25.3939 8.17074C26.0458 6.94617 26.8164 5.97905 27.6856 5.29774C28.4759 4.6809 29.3273 4.29987 30.2672 4.14443C30.9506 4.92417 30.892 5.37803 30.8194 5.93808C30.7887 6.17538 30.7539 6.4435 30.77 6.73506C30.7751 7.21369 30.9298 7.65673 31.1886 8.02045C31.3456 8.39498 31.7261 9.34105 32.1285 10.622C32.7363 12.5585 33.1239 14.3824 33.28 16.0419C33.2979 16.2285 33.3838 16.4001 33.5219 16.5248C33.6772 16.6651 33.8848 16.7345 34.0939 16.7151C34.5031 16.6756 34.8048 16.3114 34.7667 15.9024V15.9016C34.5074 13.1998 33.7447 10.6394 33.151 8.96839C34.3374 8.90324 35.2827 7.91567 35.2827 6.71081C35.2827 6.35164 35.1734 6.06173 35.0855 5.82868C35.0789 5.81092 35.0725 5.79331 35.0658 5.77563C35.0658 5.77563 35.4585 5.8048 35.4776 5.8048C35.8642 5.8048 36.1915 5.50698 36.2214 5.11536C36.2534 4.70478 35.9455 4.34629 35.5343 4.31495ZM33.6379 6.21837C33.6542 6.26396 33.7898 6.62394 33.7898 6.71125C33.7898 7.13519 33.4476 7.48002 33.0268 7.48002C32.6061 7.48002 32.2639 7.13519 32.2639 6.71125C32.2639 6.55283 32.2749 6.33232 32.3011 6.13031C32.4015 5.3552 32.5391 4.29375 31.0782 2.82755C31.0744 2.82382 30.8297 2.58533 30.8297 2.26116C30.8297 1.83723 31.172 1.49239 31.5927 1.49239C32.091 1.49239 32.2485 1.73238 32.3236 1.9129C32.5123 2.36623 32.9096 2.40145 33.0269 2.40145C33.4476 2.40145 33.7899 2.74629 33.7899 3.17022C33.7899 3.25962 33.6676 3.59916 33.6554 3.63401V3.63393C33.2356 4.83656 33.5033 5.84197 33.6379 6.21837Z" fill="#949494"/>
    <path d="M34.0092 20.0713C34.4216 20.0713 34.7559 19.7372 34.7559 19.3251C34.7559 18.913 34.4216 18.5789 34.0092 18.5789C33.5968 18.5789 33.2625 18.913 33.2625 19.3251C33.2625 19.7372 33.5968 20.0713 34.0092 20.0713Z" fill="#949494"/>
</svg>
