<svg width="39" height="38" viewBox="0 0 39 38" fill="none" xmlns="http://www.w3.org/2000/svg">
    <g opacity="0.6" clip-path="url(#clip0)">
        <path d="M36.3406 1.98132H26.042C25.803 1.98132 25.5783 2.09381 25.4378 2.28387C25.2973 2.47399 25.2579 2.71864 25.3319 2.94208C25.6407 3.87525 26.4133 4.55908 27.3516 4.78112C27.3253 4.94887 27.3114 5.11962 27.3115 5.29258L27.3116 12.49C27.3116 12.8387 27.1734 13.1665 26.9225 13.4131C26.6716 13.6596 26.3379 13.7954 25.983 13.7954H25.941C25.3976 13.7954 24.9017 13.4851 24.6779 13.0048L20.8921 4.88217C20.4148 3.85801 19.4056 3.23245 18.2602 3.25226C17.114 3.27112 16.1273 3.92838 15.6849 4.9678L15.3953 5.64825C15.1783 6.15817 14.7129 6.46262 14.1504 6.46262C13.5879 6.46262 13.1224 6.15824 12.9054 5.64832L12.6159 4.96773C12.1736 3.92853 11.1868 3.27119 10.0407 3.25241C8.89554 3.23347 7.88596 3.85808 7.40851 4.88231L5.87638 8.16958C5.70463 8.53802 5.86936 8.97352 6.24436 9.1423C6.61922 9.311 7.0624 9.1492 7.23422 8.78068L8.76635 5.49342C8.99291 5.00743 9.44931 4.71956 9.99061 4.71956C9.99897 4.71956 10.0075 4.71963 10.0158 4.71978C10.5681 4.7288 11.025 5.03318 11.2382 5.53393L11.5277 6.21452C11.9782 7.2728 12.9831 7.93021 14.1505 7.93021C15.3178 7.93021 16.3228 7.2728 16.7732 6.21445L17.0628 5.534C17.276 5.03318 17.733 4.72873 18.2852 4.71963C18.2936 4.71949 18.302 4.71949 18.3104 4.71949C18.8515 4.71949 19.3079 5.00735 19.5344 5.49327L23.3202 13.6158C23.7866 14.6165 24.8153 15.263 25.9412 15.263H25.9831C26.737 15.263 27.4457 14.9745 27.9787 14.4507C28.5117 13.9269 28.8052 13.2305 28.8052 12.4898L28.8051 5.29243C28.8051 4.80006 29.0002 4.33703 29.3545 3.98884C29.7087 3.64066 30.1799 3.44892 30.681 3.44892H36.3406C36.5601 3.44892 36.7388 3.62451 36.7388 3.84025V5.43017C36.7388 5.6459 36.5601 5.8215 36.3406 5.8215H34.4987C34.3269 5.8215 34.1605 5.87969 34.0272 5.98624C33.3022 6.56608 32.3883 6.88551 31.4534 6.88551H31.4371C31.0247 6.88551 30.6904 7.2141 30.6904 7.6193C30.6904 7.92009 30.8748 8.17831 31.1384 8.29161V14.4926C31.1384 17.2566 29.3385 19.6744 26.6595 20.509C26.3468 20.6064 26.1354 20.8929 26.1384 21.2152L26.152 22.6614C26.1643 23.9799 25.8077 25.2753 25.1206 26.4079C25.016 26.5805 24.9878 26.7877 25.0429 26.9813L27.074 34.1216H25.6023L21.2309 21.3038C21.129 21.0048 20.8439 20.8032 20.5229 20.8032H10.4292V20.6931C10.4292 20.2879 10.0949 19.9593 9.68251 19.9593C9.27017 19.9593 8.93578 20.2879 8.93578 20.6931V23.1391C8.93578 25.6747 6.83652 27.7376 4.25628 27.7376C3.84386 27.7376 3.50956 28.0662 3.50956 28.4714V34.1216H1.97354L1.51259 26.4126C3.40292 24.6013 4.4803 22.1012 4.4803 19.4977V17.9087C4.4803 16.8469 4.59768 15.7827 4.82917 14.7459C4.91758 14.35 4.66257 13.9587 4.25979 13.8719C3.85731 13.7855 3.45878 14.0355 3.37044 14.4314C3.11588 15.5713 2.98685 16.7413 2.98685 17.9087V19.4977C2.98685 21.8067 1.98766 24.0197 0.24562 25.5691C0.077831 25.7182 -0.012 25.9342 0.00129171 26.1562L0.523999 34.8985C0.547148 35.2863 0.873989 35.5892 1.26938 35.5892H4.25628C4.66862 35.5892 5.00301 35.2607 5.00301 34.8554V29.161C6.37004 28.9984 7.59982 28.394 8.54219 27.499L10.9249 35.0722C11.0216 35.3796 11.3109 35.5892 11.6383 35.5892H14.6314C14.865 35.5892 15.0851 35.4818 15.2263 35.299C15.3676 35.1161 15.4135 34.8789 15.3506 34.6579L13.1384 26.8812C13.8598 25.5853 14.2325 24.1283 14.2186 22.6439L14.2131 22.2708H19.5762L18.3727 34.7864C18.3529 34.9921 18.4223 35.1965 18.5638 35.3493C18.7053 35.5021 18.9059 35.5893 19.1161 35.5893H22.1148C22.492 35.5893 22.8099 35.3129 22.856 34.945L23.2457 31.8299L24.357 35.0887C24.4589 35.3877 24.744 35.5893 25.065 35.5893H28.0581C28.2917 35.5893 28.5118 35.4818 28.653 35.2991C28.7942 35.1162 28.8402 34.879 28.7773 34.6579L26.5651 26.8812C27.2866 25.5854 27.6592 24.1287 27.6454 22.648L27.6368 21.7241C29.0036 21.1928 30.183 20.3039 31.0714 19.1301C32.0922 17.7815 32.6318 16.1779 32.6318 14.4926V8.22747C33.395 8.06457 34.1204 7.7461 34.7534 7.28909H36.3406C37.3836 7.28909 38.2323 6.45521 38.2323 5.43017V3.84025C38.2323 2.81521 37.3836 1.98132 36.3406 1.98132ZM12.7253 22.6614C12.7376 23.9798 12.3809 25.2753 11.6939 26.4079C11.5893 26.5805 11.5611 26.7878 11.6162 26.9812L13.6473 34.1216H12.189L9.6572 26.0745C10.149 25.2042 10.4292 24.2032 10.4292 23.1391V22.2708H12.7194L12.7253 22.6614ZM21.4543 34.1216H19.9367L20.8364 24.7656L22.1448 28.6019L21.4543 34.1216Z" fill="#949494"/>
        <path d="M31.3998 5.87043C31.5962 5.87043 31.7888 5.79191 31.9277 5.65535C32.0666 5.51894 32.1465 5.32962 32.1465 5.13663C32.1465 4.94364 32.0666 4.75432 31.9277 4.61783C31.7888 4.48127 31.5962 4.40283 31.3998 4.40283C31.2034 4.40283 31.0108 4.48127 30.8719 4.61783C30.733 4.75432 30.6531 4.94291 30.6531 5.13663C30.6531 5.32962 30.7329 5.51894 30.8719 5.65535C31.0108 5.79191 31.2034 5.87043 31.3998 5.87043Z" fill="#949494"/>
        <path d="M5.16567 12.1907C5.36206 12.1907 5.55471 12.1122 5.69361 11.9757C5.83242 11.8392 5.9124 11.6499 5.9124 11.4569C5.9124 11.264 5.8325 11.0746 5.69361 10.9381C5.55471 10.8017 5.36206 10.7231 5.16567 10.7231C4.96928 10.7231 4.77663 10.8017 4.63699 10.9381C4.49817 11.0746 4.41895 11.264 4.41895 11.4569C4.41895 11.6499 4.49817 11.8392 4.63699 11.9757C4.77663 12.1121 4.96928 12.1907 5.16567 12.1907Z" fill="#949494"/>
    </g>
    <defs>
        <clipPath id="clip0">
            <rect width="38.2323" height="37.5704" fill="white"/>
        </clipPath>
    </defs>
</svg>
