<svg width="39" height="39" viewBox="0 0 39 39" fill="none" xmlns="http://www.w3.org/2000/svg">
    <g opacity="0.6" clip-path="url(#clip0)">
        <path d="M38.1147 13.8581L36.7564 9.50825C36.6312 9.10716 36.4363 8.74412 36.1878 8.42995C36.9402 7.9302 37.4373 7.07584 37.4373 6.10731C37.4373 5.69517 37.1029 5.36108 36.6905 5.36108C36.2782 5.36108 35.9438 5.69517 35.9438 6.10731C35.9438 6.77631 35.4336 7.32837 34.7816 7.39538C34.4068 7.25128 34.0011 7.17315 33.5796 7.17315H32.2216C31.8074 7.17315 31.3958 7.25255 31.0115 7.40232C30.3504 7.34068 29.8312 6.7837 29.8312 6.10731C29.8312 5.69517 29.4968 5.36108 29.0844 5.36108C28.6721 5.36108 28.3377 5.69517 28.3377 6.10731C28.3377 6.8913 28.663 7.60044 29.1852 8.10825C27.5753 7.4953 25.8443 7.17315 24.1256 7.17315H20.8585C20.4461 7.17315 20.1118 7.50724 20.1118 7.91938C20.1118 8.33152 20.4461 8.66561 20.8585 8.66561H24.1256C25.6819 8.66561 27.2495 8.96089 28.7046 9.52236C28.3052 10.3677 28.2052 11.3426 28.453 12.2709C28.5219 12.529 28.7237 12.7306 28.982 12.7995C29.3219 12.8901 29.6681 12.9343 30.0119 12.9343C31.0623 12.9343 32.0907 12.522 32.8495 11.7637C33.1411 11.4723 33.1411 10.9998 32.8495 10.7083C32.5578 10.4169 32.0851 10.4169 31.7934 10.7083C31.2709 11.2305 30.5443 11.4909 29.8188 11.4345C29.7634 10.7228 30.0142 10.0103 30.5179 9.49042L31.1114 9.03947C31.4287 8.79837 31.823 8.66554 32.2216 8.66554H33.5796C34.3867 8.66554 35.0903 9.18282 35.3308 9.95271L36.689 14.3026C36.8189 14.7186 36.6896 15.1714 36.3596 15.4562C36.0483 15.7248 35.6179 15.7966 35.2364 15.6435L33.7934 15.0644C33.7049 15.0289 33.6105 15.0107 33.5151 15.0107H31.432C31.2371 15.0107 31.05 15.0868 30.9105 15.2228L27.9279 18.1315C27.5673 18.4832 27.1733 18.8048 26.7566 19.0876C25.1186 20.1993 24.1408 22.0201 24.1408 23.9584V31.3538H22.4307V24.2055C22.4307 22.2016 20.7993 20.5713 18.794 20.5713H12.0369C10.8736 20.5713 9.772 21.1336 9.09017 22.0756L7.47173 24.3117C7.34986 24.4799 7.30379 24.6914 7.34449 24.8951L8.63504 31.3537H6.909L5.27129 25.4332V22.6688C6.56834 21.4463 7.0328 19.5647 6.4464 17.8763V13.2573C6.4464 10.7254 8.50758 8.66561 11.0411 8.66561H14.138C14.5503 8.66561 14.8847 8.33152 14.8847 7.91938C14.8847 7.50724 14.5503 7.17315 14.138 7.17315H11.0411C8.7248 7.17315 6.48344 8.00594 4.72977 9.51803C2.97609 11.0302 1.82346 13.124 1.48422 15.4138L1.37654 16.1408C1.20383 17.3065 0.770282 18.4432 0.122726 19.4279C-0.10368 19.7723 -0.00795031 20.235 0.336736 20.4613C0.463081 20.5443 0.605406 20.584 0.746014 20.584C0.989071 20.584 1.22735 20.4657 1.37079 20.2475C2.13671 19.0827 2.64955 17.7383 2.85386 16.3594L2.96153 15.6323C3.23498 13.7865 4.13179 12.1519 5.41645 10.9306C5.11829 11.6478 4.95281 12.4335 4.95281 13.2572V18.008C4.95281 18.0992 4.96961 18.1897 5.00217 18.2749C5.46424 19.4803 5.11328 20.8521 4.12918 21.688L4.04084 21.763C3.87395 21.9048 3.7777 22.1127 3.7777 22.3317V25.5344C3.7777 25.6016 3.78681 25.6684 3.80466 25.7333L5.62076 32.2989C5.71021 32.6223 6.00472 32.8463 6.34052 32.8463H12.6385C12.8622 32.8463 13.0741 32.7461 13.2159 32.5732C13.3577 32.4004 13.4145 32.1731 13.3707 31.9539L12.0918 25.5535L14.3333 22.0637H18.7937C19.9755 22.0637 20.937 23.0245 20.937 24.2055V32.1C20.937 32.5122 21.2713 32.8463 21.6837 32.8463H28.1054C28.5177 32.8463 28.8521 32.5122 28.8521 32.1V25.4198C28.8521 24.3946 28.9559 23.3654 29.1606 22.3608L30.0114 18.1846L31.7357 16.503H33.3706L34.6796 17.0284C35.5819 17.3904 36.5996 17.2209 37.3355 16.5857C38.116 15.9124 38.4218 14.8417 38.1147 13.8581ZM10.6722 25.0009C10.5678 25.1637 10.5306 25.3606 10.5684 25.5502L11.728 31.3538H10.1578L8.87272 24.9224L10.3001 22.9502C10.7019 22.3951 11.3511 22.0637 12.0367 22.0637H12.5588L10.6722 25.0009ZM27.6974 22.0631C27.4728 23.1654 27.3589 24.2948 27.3589 25.4199V31.3539H25.6341V23.9585C25.6341 22.5153 26.3673 21.1559 27.5957 20.3222C27.7783 20.1983 27.9571 20.068 28.1316 19.932L27.6974 22.0631Z" fill="#949494"/>
        <path d="M17.4979 8.66532C17.6951 8.66532 17.887 8.58622 18.0258 8.44667C18.1654 8.30787 18.2447 8.11609 18.2447 7.91909C18.2447 7.72283 18.1654 7.5303 18.0258 7.3915C17.887 7.2527 17.695 7.17285 17.4979 7.17285C17.3016 7.17285 17.1089 7.2527 16.97 7.3915C16.8311 7.5303 16.7512 7.72283 16.7512 7.91909C16.7512 8.11534 16.831 8.30787 16.97 8.44667C17.1089 8.58629 17.3016 8.66532 17.4979 8.66532Z" fill="#949494"/>
    </g>
    <defs>
        <clipPath id="clip0">
            <rect width="38.2323" height="38.2072" fill="white"/>
        </clipPath>
    </defs>
</svg>
