<svg width="48" height="48" viewBox="0 0 48 48" fill="none" xmlns="http://www.w3.org/2000/svg">
    <path d="M40.9705 7.02952H31.0295L24 0L16.9707 7.02952H7.02952V16.9707L0 24L7.02952 31.0295V40.9705H16.9707L24 48L31.0295 40.9705H40.9705V31.0295L48 24L40.9705 16.9707V7.02952Z" fill="#87C440"/>
    <path d="M31.3616 26.9427C34.1888 26.6589 35.661 25.5929 36.1425 25.267C36.1425 25.267 34.9607 24.5616 34.3716 24.3007C33.7587 24.0292 33.1036 23.901 32.4428 23.8548C32.1027 23.8311 31.7328 23.8818 31.413 23.999C30.769 24.2349 29.5079 25.2556 29.4294 25.335C29.4589 25.2202 30.242 23.4317 30.7872 22.759C31.2852 22.1446 31.8409 21.5974 32.654 21.4267C33.1392 21.325 33.6297 21.3645 34.1085 21.4718C35.3222 21.7443 36.3576 22.399 37.4036 23.0311C38.1552 23.4854 38.8987 23.969 39.777 24.1451C40.3685 24.2636 40.5521 24.3436 41.1508 24.4213C41.4395 24.4588 42.2371 24.5277 42.2371 24.5277C42.2371 24.5277 41.8282 25.1067 41.6751 25.3216C41.3405 25.7905 40.6384 26.8762 40.6384 26.8762C40.6384 26.8762 39.6033 26.8152 39.0292 26.8318C36.358 26.797 34.8591 28.9745 30.1782 28.5133C28.5396 28.2958 27.9542 26.8531 27.395 25.6514C27.0653 24.9429 26.9235 24.1882 26.8395 23.4222C26.764 22.7357 26.7183 22.0454 26.676 21.3556C26.6509 20.9476 26.6471 20.5373 26.6518 20.1284C26.6611 19.2971 26.6939 17.5571 26.6913 17.5183C26.6738 17.5571 26.3876 18.7155 26.2299 19.2462C25.9002 20.3563 25.5667 21.4657 25.2007 22.5641C24.9325 23.3693 24.5909 24.1464 24.1338 24.8685C23.585 25.7353 22.8543 26.4198 22.0089 26.9839C20.6575 27.886 19.1607 28.3717 17.547 28.5349C16.578 28.6331 15.6164 28.5729 14.6531 28.485C14.5085 28.4719 14.3656 28.4388 14.223 28.4091C14.1917 28.4026 14.1652 28.3715 14.1367 28.3517C14.1609 28.3247 14.1811 28.2807 14.2105 28.2731C14.3516 28.2364 14.4969 28.2157 14.6376 28.1779C16.2761 27.7362 17.8383 27.116 19.3031 26.247C20.4458 25.5691 21.498 24.7804 22.4072 23.8151C23.4545 22.7031 24.3065 21.4538 24.8002 19.9967C25.084 19.1588 25.3005 18.2975 25.5363 17.4436C25.7047 16.8333 25.8531 16.2174 26.0137 15.6048C26.1889 14.9365 26.3607 14.2671 26.5486 13.6022C26.6544 13.2273 26.7884 12.8602 26.9118 12.4902C26.9504 12.3749 26.9872 12.3363 27.1168 12.4327C27.3659 12.6177 27.5079 12.8533 27.5977 13.1438C27.778 13.7282 26.1777 27.4632 31.3616 26.9427Z" fill="white"/>
    <path d="M15.6746 22.1576C15.6548 21.4746 15.65 20.625 15.6002 19.778C15.5481 18.8941 15.4651 18.0115 15.3723 17.1308C15.2929 16.3787 15.1809 15.6299 15.0823 14.8796C14.9899 14.1767 14.9018 13.4732 14.801 12.7714C14.7361 12.3191 14.642 11.8707 14.5825 11.4179C14.5061 10.9209 15.8006 9.32696 15.8442 9.28149C16.2717 10.6544 17.4875 11.7036 17.284 12.1767C16.6623 13.2296 16.5773 14.3938 16.6034 15.5753C16.6189 16.2669 16.6656 16.9577 16.6975 17.6489C16.7312 18.3779 16.8708 22.8463 16.8755 23.1382C16.8919 24.1616 16.6966 25.1935 16.0572 25.9775C15.4532 26.7182 14.6017 27.2229 13.795 27.7402C12.844 28.35 11.815 28.7277 10.6711 28.6509C9.45143 28.5691 8.30217 28.2568 7.34822 27.4337C6.84058 26.9957 6.4893 26.4527 6.29009 25.8129C5.92073 24.6262 6.14026 23.5001 6.64156 22.4019C6.99843 21.6205 8.22073 20.1919 8.24775 20.1911C8.24794 20.2176 7.56103 21.63 7.2405 23.2166C7.17006 23.6536 7.22653 24.0943 7.36499 24.5179C7.49581 24.9179 7.76845 25.2108 8.11693 25.4268C8.77309 25.8336 9.49037 26.0757 10.257 26.1681C10.5368 26.2018 10.8174 26.2518 11.0979 26.2537C12.3178 26.2622 13.483 26.0291 14.5509 25.4115C14.9901 25.1573 15.2832 24.8072 15.4088 24.2872C15.5656 23.6382 15.6258 22.9844 15.6746 22.1576Z" fill="white"/>
    <path d="M22.679 22.8103C22.6563 22.7719 22.215 21.4076 21.9806 20.7774C21.7517 20.162 21.4332 19.5843 21.0074 19.0823C20.6412 18.6507 20.1532 18.3756 19.6355 18.1537C19.2139 17.9731 18.7915 17.7929 18.3793 17.5924C17.9978 17.4068 17.6514 17.1675 17.482 16.7536C17.4126 16.5842 17.3511 16.4055 17.3249 16.2255C17.2129 15.4567 17.277 14.6847 17.3118 13.9143C17.3234 13.6606 17.4089 13.6226 17.6597 13.7328C18.4782 14.0919 19.2352 14.5531 19.9156 15.1334C20.6479 15.7581 21.2937 16.4601 21.7802 17.2976C22.404 18.371 22.7484 19.5282 22.8186 20.7669C22.8369 21.0884 22.7027 22.7716 22.679 22.8103Z" fill="white"/>
    <path d="M15.8139 31.438V33.3349H13.9037V31.438H12.9531V36.1957H13.9037V34.2855H15.8139V36.1957H16.7645V31.438H15.8139ZM18.9717 34.8252L19.6386 33.4014L20.3056 34.8252H18.9717ZM19.6386 31.438L17.2531 36.1957H18.3682L18.5496 35.798H20.7188L20.8958 36.1957H22.0108L19.6386 31.438ZM22.4994 31.438V36.1957H25.6445V35.2495H23.45V31.438H22.4994ZM27.8517 34.8252L28.5187 33.4014L29.1856 34.8252H27.8517ZM28.5187 31.438L26.1331 36.1957H27.2481L27.4296 35.798H29.5988L29.7758 36.1957H30.8908L28.5187 31.438ZM31.3794 31.438V36.1957H34.5245V35.2495H32.33V31.438H31.3794Z" fill="white"/>
    <path d="M18.167 38.2475C18.0975 38.3604 17.998 38.4169 17.8685 38.4169C17.7721 38.4169 17.6895 38.3822 17.6208 38.3127C17.552 38.2439 17.5175 38.1614 17.5175 38.065C17.5175 37.9689 17.552 37.8873 17.6208 37.8207C17.6895 37.752 17.7721 37.7175 17.8685 37.7175C17.998 37.7175 18.0975 37.773 18.167 37.8837L18.3332 37.7175C18.216 37.5626 18.061 37.4851 17.8685 37.4851C17.7076 37.4851 17.5697 37.5416 17.4546 37.6545C17.3416 37.7674 17.2852 37.9044 17.2852 38.065C17.2852 38.2259 17.3416 38.3638 17.4546 38.4789C17.5697 38.5919 17.7076 38.6483 17.8685 38.6483C18.061 38.6483 18.216 38.5712 18.3332 38.4169L18.167 38.2475ZM18.4527 37.4851V38.6483H19.2684V38.4169H18.6851V38.1813H19.1739V37.9489H18.6851V37.7175H19.2684V37.4851H18.4527ZM19.6202 38.1813V37.7143H19.8548C19.8925 37.7143 19.931 37.7248 19.9709 37.7458C20.0484 37.7835 20.0872 37.8511 20.0872 37.9489C20.0872 38.0451 20.0484 38.1133 19.9709 38.153C19.931 38.1718 19.8925 38.1813 19.8548 38.1813H19.6202ZM20.0872 37.5416C20.0097 37.5019 19.9322 37.4819 19.8548 37.4819H19.3878V38.6483H19.6202V38.4137H19.8548C19.8679 38.4137 19.8856 38.4126 19.9079 38.4104L19.9959 38.6483H20.2436L20.1284 38.3323C20.2559 38.2505 20.3196 38.1226 20.3196 37.9489C20.3196 37.7548 20.2421 37.6191 20.0872 37.5416ZM20.3956 37.4851V37.7164H20.7432V38.6483H20.9776V37.7164H21.3252V37.4851H20.3956ZM21.4446 37.4851V38.6483H21.677V37.4851H21.4446ZM21.7967 37.4851V38.6483H22.029V38.1813H22.5177V37.9489H22.029V37.7175H22.6121V37.4851H21.7967ZM22.7316 37.4851V38.6483H22.964V37.4851H22.7316ZM23.0834 37.4851V38.6483H23.8991V38.4169H23.3158V38.1813H23.8046V37.9489H23.3158V37.7175H23.8991V37.4851H23.0834ZM24.251 38.4169V37.7175H24.4856C24.5421 37.7175 24.5996 37.732 24.6582 37.7609C24.7756 37.8196 24.8343 37.921 24.8343 38.065C24.8343 38.2113 24.7756 38.3138 24.6582 38.3723C24.5996 38.4022 24.5421 38.4169 24.4856 38.4169H24.251ZM24.0186 37.4851V38.6483H24.4856C24.5819 38.6483 24.6781 38.6243 24.7744 38.5766C24.9692 38.4782 25.0666 38.3077 25.0666 38.065C25.0666 37.8226 24.9692 37.6532 24.7744 37.5568C24.6781 37.509 24.5819 37.4851 24.4856 37.4851H24.0186ZM25.7247 37.4851V38.6483H25.9571V38.1813H26.4459V37.9489H25.9571V37.7175H26.5404V37.4851H25.7247ZM26.8173 38.065C26.8173 37.9689 26.8516 37.8873 26.9205 37.8207C26.9893 37.752 27.0717 37.7175 27.168 37.7175C27.2643 37.7175 27.3458 37.752 27.4123 37.8207C27.4818 37.8873 27.5167 37.9689 27.5167 38.065C27.5167 38.1614 27.4818 38.2439 27.4123 38.3127C27.3458 38.3822 27.2643 38.4169 27.168 38.4169C27.0717 38.4169 26.9893 38.3822 26.9205 38.3127C26.8516 38.2439 26.8173 38.1614 26.8173 38.065ZM26.5849 38.065C26.5849 38.2259 26.6414 38.3638 26.7543 38.4789C26.8695 38.5919 27.0074 38.6483 27.168 38.6483C27.3296 38.6483 27.4664 38.5919 27.5785 38.4789C27.6915 38.3638 27.7479 38.2259 27.7479 38.065C27.7479 37.9044 27.6915 37.7674 27.5785 37.6545C27.4664 37.5416 27.3296 37.4851 27.168 37.4851C27.0074 37.4851 26.8695 37.5416 26.7543 37.6545C26.6414 37.7674 26.5849 37.9044 26.5849 38.065ZM28.0998 38.065C28.0998 37.9689 28.1343 37.8873 28.203 37.8207C28.2718 37.752 28.3543 37.7175 28.4507 37.7175C28.5468 37.7175 28.6283 37.752 28.695 37.8207C28.7645 37.8873 28.7992 37.9689 28.7992 38.065C28.7992 38.1614 28.7645 38.2439 28.695 38.3127C28.6283 38.3822 28.5468 38.4169 28.4507 38.4169C28.3543 38.4169 28.2718 38.3822 28.203 38.3127C28.1343 38.2439 28.0998 38.1614 28.0998 38.065ZM27.8674 38.065C27.8674 38.2259 27.9239 38.3638 28.0368 38.4789C28.152 38.5919 28.2899 38.6483 28.4507 38.6483C28.6121 38.6483 28.7489 38.5919 28.8612 38.4789C28.9742 38.3638 29.0306 38.2259 29.0306 38.065C29.0306 37.9044 28.9742 37.7674 28.8612 37.6545C28.7489 37.5416 28.6121 37.4851 28.4507 37.4851C28.2899 37.4851 28.152 37.5416 28.0368 37.6545C27.9239 37.7674 27.8674 37.9044 27.8674 38.065ZM29.3825 38.4169V37.7175H29.6171C29.6736 37.7175 29.7311 37.732 29.7897 37.7609C29.9071 37.8196 29.9656 37.921 29.9656 38.065C29.9656 38.2113 29.9071 38.3138 29.7897 38.3723C29.7311 38.4022 29.6736 38.4169 29.6171 38.4169H29.3825ZM29.1501 37.4851V38.6483H29.6171C29.7133 38.6483 29.8096 38.6243 29.9059 38.5766C30.1007 38.4782 30.198 38.3077 30.198 38.065C30.198 37.8226 30.1007 37.6532 29.9059 37.5568C29.8096 37.509 29.7133 37.4851 29.6171 37.4851H29.1501Z" fill="white"/>
</svg>
