<svg width="38" height="39" viewBox="0 0 38 39" fill="none" xmlns="http://www.w3.org/2000/svg">
    <g opacity="0.6" clip-path="url(#clip0)">
        <path d="M32.2062 10.3958C32.3427 10.2569 32.4213 10.0644 32.4213 9.86812C32.4213 9.67185 32.3427 9.4793 32.2062 9.34049C32.0696 9.20168 31.8801 9.12183 31.687 9.12183C31.4938 9.12183 31.3044 9.20168 31.1678 9.34049C31.0312 9.4793 30.9526 9.67185 30.9526 9.86812C30.9526 10.0644 31.0312 10.2569 31.1678 10.3958C31.3044 10.5346 31.4938 10.6144 31.687 10.6144C31.8801 10.6144 32.0696 10.5346 32.2062 10.3958Z" fill="#949494"/>
        <path d="M36.9013 10.2655L34.165 6.9648C34.1629 6.96234 34.1609 6.95987 34.1588 6.95741C33.8202 6.55971 33.409 6.2435 32.9543 6.01961V3.33533C32.9543 3.00569 32.7415 2.71516 32.4309 2.62045C32.1202 2.52589 31.7852 2.64941 31.6068 2.92472L31.1712 3.59661H29.3467C26.6497 3.59661 24.0747 4.45328 21.8999 6.07409C20.1683 7.36452 18.7818 9.09608 17.8903 11.0815L17.1605 12.7068H14.7606C14.355 12.7068 14.0262 13.0409 14.0262 13.4531C14.0262 13.8653 14.355 14.1994 14.7606 14.1994H18.2449C20.2467 14.1994 22.1829 13.4663 23.6967 12.1352L27.9341 8.40941C28.8731 7.5837 30.0741 7.12899 31.3158 7.12899C31.9798 7.12899 32.6099 7.42116 33.0451 7.93058L35.7809 11.2306C35.783 11.2331 35.785 11.2356 35.7871 11.238C36.1653 11.6823 36.236 12.3287 35.9632 12.8467C35.6212 13.4958 34.8323 13.7755 34.1651 13.4829L31.5711 12.354C31.2268 12.2041 30.8267 12.3416 30.6425 12.6731L28.7546 16.0715C28.6924 16.1834 28.6597 16.3099 28.6597 16.4384V18.2668C28.6597 19.83 27.8842 21.2657 26.5851 22.1074C24.6501 23.3612 23.4948 25.4665 23.4948 27.7391V33.3296C23.4948 33.4432 23.5203 33.5553 23.5695 33.6574L23.7948 34.1256H22.0016V25.3687C22.0016 23.9629 20.8763 22.8192 19.493 22.8192H10.7438L11.1357 21.7561C11.278 21.3701 11.0855 20.94 10.7057 20.7954C10.3259 20.6507 9.90269 20.8465 9.76037 21.2325L7.35364 27.7611C7.32279 27.8448 7.30693 27.9335 7.30693 28.0229V33.3296C7.30693 33.4432 7.33249 33.5553 7.38161 33.6575L7.60691 34.1256H5.81387V26.0963C5.81387 24.2265 5.31466 22.3256 4.37007 20.5989C4.02787 19.9734 3.84428 19.262 3.83907 18.5416C3.83092 17.4017 4.26683 16.323 5.06652 15.5044C5.88847 14.663 6.98411 14.1996 8.15157 14.1996C8.55715 14.1996 8.88591 13.8654 8.88591 13.4533C8.88591 13.0411 8.55715 12.707 8.15157 12.707C6.58977 12.707 5.12395 13.327 4.0242 14.4529C3.88974 14.5905 3.76292 14.7337 3.64388 14.8818C1.60292 15.0758 0 16.8259 0 18.95V26.9266C0 29.0411 0.996797 31.0568 2.66647 32.3184C2.79741 32.4173 2.95125 32.4658 3.10436 32.4658C3.29617 32.4658 3.48681 32.3897 3.62964 32.2413L3.65343 32.2165C3.90472 31.9554 4.13538 31.6789 4.34511 31.3895V34.3315C4.34511 35.041 4.91305 35.6182 5.61111 35.6182H10.8914C11.3311 35.6182 11.7326 35.3919 11.9654 35.0128C12.1982 34.6338 12.2219 34.1678 12.0287 33.7664L11.7354 33.1569V28.1881L13.5108 24.3118H16.0434L13.8889 33.8576C13.792 34.2872 13.8913 34.7313 14.1615 35.0759C14.4317 35.4205 14.8353 35.6182 15.269 35.6182H17.4831C17.9748 35.6182 18.4239 35.3652 18.6842 34.9412C18.9445 34.5172 18.971 33.9962 18.755 33.5471L18.6135 33.2532L20.5329 26.0059V34.3316C20.5329 35.0411 21.1008 35.6182 21.7989 35.6182H24.1195C24.5591 35.6182 24.9606 35.392 25.1935 35.0129C25.4263 34.6339 25.45 34.1679 25.2568 33.7665L24.9635 33.1569V27.7392C24.9635 25.9791 25.8648 24.3443 27.3746 23.366C29.0988 22.2488 30.1283 20.3426 30.1283 18.2668V16.6345L31.5978 13.9893L33.5849 14.8541C34.945 15.4509 36.5585 14.8786 37.2579 13.5512C37.8152 12.4937 37.6716 11.1739 36.9013 10.2655ZM26.9731 7.28063L22.7358 11.0065C21.6256 11.9827 20.2395 12.5671 18.7852 12.6839L19.2265 11.7012C20.014 9.94738 21.2388 8.41777 22.7684 7.2778C24.6896 5.8461 26.9643 5.08928 29.3467 5.08928H30.2034L29.7191 5.83625C28.7118 6.09014 27.769 6.58083 26.9731 7.28063ZM3.03203 30.6785C2.04346 29.7017 1.46869 28.3427 1.46869 26.9266V18.95C1.46869 18.0385 1.93404 17.236 2.63548 16.7731C2.4577 17.3418 2.36605 17.9402 2.37046 18.5524C2.37743 19.5223 2.62506 20.4807 3.08644 21.3242C3.90986 22.8295 4.34518 24.4797 4.34518 26.0963V26.833C4.34481 28.2436 3.88262 29.5866 3.03203 30.6785ZM10.3354 27.7079C10.2902 27.8066 10.2668 27.9141 10.2668 28.0229V33.3296C10.2668 33.4432 10.2923 33.5553 10.3415 33.6574L10.5668 34.1256H9.18156C9.16173 34.0029 9.12465 33.8819 9.06906 33.7663L8.77569 33.1568V28.1581L10.1936 24.3118H11.8909L10.3354 27.7079ZM17.1238 33.1356C17.0777 33.3099 17.0952 33.4953 17.1733 33.6575L17.3986 34.1256H15.3353L17.5503 24.3118H19.4607L17.1238 33.1356Z" fill="#949494"/>
        <path d="M11.4565 14.1996C11.6496 14.1996 11.8384 14.1198 11.9757 13.981C12.1123 13.8422 12.1909 13.6496 12.1909 13.4533C12.1909 13.2563 12.1123 13.0645 11.9757 12.9257C11.8384 12.7861 11.6496 12.707 11.4565 12.707C11.2626 12.707 11.0739 12.7861 10.9366 12.9257C10.8 13.0645 10.7222 13.2563 10.7222 13.4533C10.7222 13.6496 10.8 13.8422 10.9366 13.981C11.0732 14.1198 11.2626 14.1996 11.4565 14.1996Z" fill="#949494"/>
    </g>
    <defs>
        <clipPath id="clip0">
            <rect width="37.5951" height="38.2072" fill="white"/>
        </clipPath>
    </defs>
</svg>
