<svg width="39" height="39" viewBox="0 0 39 39" fill="none" xmlns="http://www.w3.org/2000/svg">
    <g opacity="0.6" clip-path="url(#clip0)">
        <path d="M37.4548 8.39882C37.1831 8.08877 36.7114 8.05757 36.4011 8.32898C36.0909 8.60045 36.0596 9.07192 36.3313 9.38197C36.882 10.0104 36.8737 10.9523 36.3121 11.5726C35.7338 12.2113 34.7797 12.3007 34.0926 11.7806C33.4109 11.2645 32.5644 10.9802 31.7092 10.9802H30.8168C30.4045 10.9802 30.0701 11.3143 30.0701 11.7265C30.0701 12.1386 30.4045 12.4727 30.8168 12.4727C30.8168 12.4727 31.8256 12.4685 31.8836 12.4727C33.0362 13.0235 33.7746 14.1951 33.7746 15.4785C33.7746 16.5731 33.2344 17.5975 32.3294 18.2188C32.1137 18.3668 31.9914 18.7164 32.0068 18.9773C32.0112 19.0525 32.0134 18.9185 32.0134 18.9773C32.0134 20.5264 30.9158 21.9904 29.4036 22.3213C29.1404 22.3789 28.9286 22.5737 28.8495 22.8312C28.4184 24.2341 27.1411 25.1767 25.6712 25.1767C25.2589 25.1767 24.9245 25.5108 24.9245 25.9229C24.9245 26.2805 25.1762 26.5788 25.512 26.6518L23.8633 29.906C23.7807 30.0692 23.7609 30.257 23.8076 30.4339L25.0732 35.2159H23.0257L22.0737 32.6552C21.5267 31.1842 21.2494 29.6427 21.2494 28.0736C21.2494 26.8297 20.2367 25.8177 18.9921 25.8177H11.3013C11.4218 25.1372 11.4846 24.4462 11.4846 23.7535C11.4846 23.3414 11.1502 23.0073 10.7379 23.0073C10.3255 23.0073 9.99114 23.3414 9.99114 23.7535C9.99114 25.4687 9.56028 27.1733 8.74532 28.6829L8.09426 29.8888C8.00413 30.0556 7.98098 30.2505 8.02951 30.4339L9.29505 35.2159H7.26913L5.47134 29.7507L5.47104 25.7118C5.47104 25.5219 5.39853 25.339 5.26838 25.2007C4.6949 24.5912 4.37456 23.7949 4.36642 22.9587C4.36321 22.6338 4.15002 22.3483 3.83917 22.2528C2.43609 21.8215 1.49343 20.5453 1.49343 19.0769C1.49343 17.6507 2.41488 16.3201 3.70386 15.8563C4.03944 15.8171 4.36276 15.5421 4.36762 15.1074C4.36769 15.1032 4.36769 15.099 4.36769 15.0949C4.36919 13.2469 5.89002 11.6861 7.68991 11.6861C8.3285 11.6861 8.94947 11.8684 9.48561 12.2132C9.6693 12.3314 9.89541 12.3632 10.1046 12.3004C10.3138 12.2376 10.4849 12.0864 10.573 11.8867C11.1046 10.6812 12.299 9.90232 13.6159 9.90232C14.461 9.90232 15.2668 10.2203 15.8849 10.7977C16.1584 11.0532 16.579 11.0668 16.8684 10.8296C17.4602 10.3445 18.2082 10.0774 18.9748 10.0774C19.9343 10.0774 20.8471 10.4922 21.4792 11.2154C21.6374 11.3964 21.8729 11.4904 22.1123 11.4674C22.3516 11.4448 22.5653 11.3083 22.6865 11.1008L24.4551 8.07421C24.5588 7.89684 24.5846 7.68454 24.5266 7.48746C24.4687 7.29031 24.332 7.12584 24.1486 7.03278C23.0372 6.46811 22.3467 5.34393 22.3467 4.099C22.3467 3.74253 22.4031 3.39471 22.5146 3.06108C22.7362 3.01466 22.9623 2.9913 23.1903 2.9913C24.2671 2.9913 25.2509 3.5065 25.8635 4.36234C25.6171 4.65106 25.4053 4.97246 25.2368 5.32206C25.0579 5.69338 25.2141 6.13933 25.5857 6.31812C25.6901 6.36834 25.8005 6.39215 25.9091 6.39215C26.187 6.39215 26.4538 6.23641 26.5824 5.96941C27.0828 4.93082 28.1515 4.25974 29.305 4.25974C30.1299 4.25974 30.941 4.48189 31.6507 4.90209C32.0058 5.11215 32.4636 4.99492 32.6738 4.64046C32.884 4.28593 32.7667 3.8282 32.412 3.61806C31.4719 3.06152 30.3975 2.76729 29.305 2.76729C28.4855 2.76729 27.6949 2.99436 27.0103 3.39904C26.1162 2.21001 24.7169 1.49878 23.1903 1.49878C22.6938 1.49878 22.2028 1.57527 21.731 1.72623C21.5299 1.79055 21.3654 1.93689 21.2784 2.12912C20.9962 2.75169 20.8532 3.41441 20.8532 4.09893C20.8532 5.64182 21.5826 7.05696 22.7987 7.94922L21.8646 9.54764C21.0377 8.92782 20.0257 8.58478 18.9748 8.58478C18.0719 8.58478 17.1866 8.84059 16.426 9.31392C15.6107 8.72724 14.633 8.40964 13.6159 8.40964C11.9772 8.40964 10.4692 9.24183 9.58821 10.5828C8.99143 10.3265 8.34709 10.1934 7.68991 10.1934C6.40414 10.1934 5.19184 10.7129 4.27622 11.6563C3.49732 12.4589 3.01994 13.477 2.90256 14.5691C1.17025 15.3289 0 17.111 0 19.0769C0 21.0276 1.1486 22.7444 2.90667 23.4983C3.01591 24.4151 3.38591 25.2792 3.97761 25.9935L3.97791 29.8703C3.97791 29.9495 3.99053 30.0281 4.01524 30.1034L6.01921 36.1953C6.12001 36.5015 6.40608 36.7084 6.72859 36.7084H13.7625C13.9943 36.7084 14.2128 36.601 14.3542 36.4175C14.4956 36.234 14.5436 35.9953 14.4844 35.7715L13.0463 30.3378L13.5572 29.3916C13.9156 28.7279 14.209 28.0297 14.4352 27.3102H18.992C19.4132 27.3102 19.7559 27.6526 19.7559 28.0736C19.7559 29.8209 20.0647 31.5373 20.6737 33.1751L21.8066 36.2222C21.9153 36.5146 22.1944 36.7085 22.5066 36.7085H29.5794C29.8112 36.7085 30.0297 36.6011 30.1711 36.4176C30.3125 36.2341 30.3606 35.9954 30.3014 35.7715L28.8418 30.2566L30.9302 23.3358C32.44 22.5356 33.4592 20.9585 33.5052 19.2012C34.6159 18.2903 35.2681 16.927 35.2681 15.4787C35.2681 14.8227 35.1346 14.1883 34.889 13.6067C34.9566 13.6111 35.0242 13.6139 35.0919 13.6139C35.9489 13.6138 36.7982 13.2604 37.4194 12.5742C38.4896 11.3921 38.5048 9.59711 37.4548 8.39882ZM11.527 30.4339L12.7926 35.2159H10.8399L9.54886 30.3376L10.0597 29.3915C10.4186 28.7268 10.7116 28.0288 10.9371 27.31H12.8592C12.6871 27.7816 12.4814 28.2409 12.2429 28.6828L11.5917 29.8887C11.5016 30.0556 11.4785 30.2505 11.527 30.4339ZM26.618 35.2159L25.3241 30.3268L27.3231 26.3812C27.8167 26.2029 28.2746 25.9462 28.6803 25.6227L27.351 30.0276C27.3111 30.1598 27.3088 30.3004 27.344 30.4339L28.6096 35.2159H26.618Z" fill="#949494"/>
        <path d="M34.5214 7.25907C34.7178 7.25907 34.9104 7.17922 35.0493 7.04042C35.1882 6.90162 35.2681 6.70909 35.2681 6.51284C35.2681 6.31658 35.1883 6.12405 35.0493 5.98525C34.9104 5.84645 34.7178 5.7666 34.5214 5.7666C34.325 5.7666 34.1323 5.84645 33.9935 5.98525C33.8546 6.12405 33.7747 6.31658 33.7747 6.51284C33.7747 6.70909 33.8546 6.90162 33.9935 7.04042C34.1323 7.17922 34.325 7.25907 34.5214 7.25907Z" fill="#949494"/>
    </g>
    <defs>
        <clipPath id="clip0">
            <rect width="38.2323" height="38.2072" fill="white"/>
        </clipPath>
    </defs>
</svg>
