<svg width="21" height="21" viewBox="0 0 21 21" fill="none" xmlns="http://www.w3.org/2000/svg">
    <path d="M10.5446 19.0483C12.0607 19.0285 13.4779 18.6524 14.7883 17.8844C15.0456 17.734 15.2831 17.6984 15.576 17.7776C16.5459 18.0467 17.5277 18.2961 18.5015 18.5495C18.7034 18.601 18.7034 18.601 18.648 18.3951C18.3788 17.3738 18.1096 16.3564 17.8444 15.3351C17.8167 15.2321 17.785 15.1332 17.8048 15.0223C17.8483 14.7967 18.0186 14.6304 18.2284 14.6146C18.4619 14.5948 18.6678 14.7413 18.739 14.9946C18.9172 15.6557 19.0874 16.3208 19.2655 16.9819C19.4476 17.6707 19.6337 18.3595 19.8118 19.0483C19.9425 19.551 19.6535 19.84 19.1507 19.7094C17.9394 19.3927 16.728 19.072 15.5167 18.7474C15.3662 18.7078 15.2475 18.7237 15.1089 18.7989C13.5452 19.6738 11.8549 20.0934 10.0735 19.9825C6.67298 19.7727 4.07213 18.1853 2.3026 15.2757C1.33668 13.6882 0.909144 11.9385 1.01603 10.0898C1.21396 6.72097 2.76972 4.12804 5.63581 2.35059C7.24303 1.353 9.02443 0.905673 10.9088 1.01652C14.2855 1.21445 16.8824 2.77813 18.6599 5.65213C19.6495 7.24748 20.0573 9.01305 19.9939 10.8855C19.9781 11.3685 19.9187 11.8435 19.8237 12.3185C19.7604 12.6234 19.5308 12.8015 19.2655 12.754C18.9963 12.7065 18.834 12.465 18.8895 12.1562C19.0518 11.2537 19.0953 10.3511 18.9766 9.43662C18.743 7.63543 18.0225 6.05195 16.7834 4.7258C14.9783 2.79396 12.7337 1.86763 10.0893 1.9666C6.34045 2.11307 3.05475 4.84852 2.19176 8.51029C1.07937 13.2251 4.0365 17.8726 8.79483 18.8781C9.36884 18.9968 9.95472 19.0523 10.5446 19.0483Z" fill="#BBBBBB" stroke="#BBBBBB" stroke-width="0.7"/>
</svg>
